<svg width="18" height="22" viewBox="0 0 18 22" fill="none" xmlns="http://www.w3.org/2000/svg">
<path d="M4.75 15.75H12.75M4.75 11.75H8.75M9.75 1.25V1.75C9.75 4.57843 9.75 5.99264 10.6287 6.87132C11.5074 7.75 12.9216 7.75 15.75 7.75H16.25M16.75 9.4069V12.75C16.75 16.5212 16.75 18.4069 15.5784 19.5784C14.4069 20.75 12.5212 20.75 8.75 20.75C4.97876 20.75 3.09315 20.75 1.92157 19.5784C0.75 18.4069 0.75 16.5212 0.75 12.75V8.20584C0.75 4.96082 0.75 3.33831 1.63607 2.23933C1.81508 2.01731 2.01731 1.81508 2.23933 1.63607C3.33831 0.75 4.96082 0.75 8.2058 0.75C8.9114 0.75 9.2641 0.75 9.5872 0.86401C9.6544 0.88772 9.7202 0.915 9.7845 0.94575C10.0936 1.09355 10.343 1.343 10.8419 1.84188L15.5784 6.57843C16.1565 7.15649 16.4455 7.44552 16.5978 7.81306C16.75 8.1806 16.75 8.58935 16.75 9.4069Z" stroke="#FDBC55" stroke-width="1.5" stroke-linecap="round" stroke-linejoin="round"/>
</svg>
