<svg width="20" height="21" viewBox="0 0 20 21" fill="none" xmlns="http://www.w3.org/2000/svg">
<path d="M9.75 0C14.0302 0 17.5 3.46979 17.5 7.75V10.5059C17.5 11.1026 17.7372 11.6747 18.1592 12.0967L18.7627 12.7002C19.2349 13.1725 19.5 13.8135 19.5 14.4814C19.4998 15.8723 18.3723 16.9998 16.9814 17H13.9326C13.5783 18.9894 11.8412 20.5 9.75 20.5C7.65879 20.5 5.92171 18.9894 5.56738 17H2.51855C1.12767 16.9998 0.00017 15.8723 0 14.4814C0 13.8135 0.26512 13.1725 0.7373 12.7002L1.34082 12.0967C1.76276 11.6747 1.99998 11.1026 2 10.5059V7.75C2 3.46979 5.46979 0 9.75 0ZM7.10645 17C7.43316 18.1539 8.4915 19 9.75 19C11.0085 19 12.0668 18.1539 12.3936 17H7.10645ZM9.75 1.5C6.29822 1.5 3.5 4.29822 3.5 7.75V10.5059C3.49998 11.5004 3.10461 12.454 2.40137 13.1572L1.79883 13.7607C1.60775 13.9518 1.5 14.2112 1.5 14.4814C1.50017 15.0439 1.9561 15.4998 2.51855 15.5H16.9814C17.5439 15.4998 17.9998 15.0439 18 14.4814C18 14.2112 17.8922 13.9518 17.7012 13.7607L17.0986 13.1572C16.3954 12.454 16 11.5004 16 10.5059V7.75C16 4.29822 13.2018 1.5 9.75 1.5Z" fill="#162F25"/>
</svg>
