<svg width="18" height="17" viewBox="0 0 18 17" fill="none" xmlns="http://www.w3.org/2000/svg">
<path d="M10.8096 6.69231C11.815 7.6232 11.815 9.13247 10.8096 10.0634C9.80323 10.9943 8.17368 10.9943 7.16727 10.0634C6.16193 9.13247 6.16193 7.6232 7.16727 6.69231C8.17368 5.76142 9.80323 5.76142 10.8096 6.69231Z" stroke="currentColor" stroke-width="1.5" stroke-linecap="round" stroke-linejoin="round"/>
<path fill-rule="evenodd" clip-rule="evenodd" d="M11.9234 0.864609L12.524 1.04958C13.074 1.21931 13.4459 1.69605 13.4459 2.23286V3.03093C13.4459 3.70981 14.031 4.26379 14.7644 4.27809L15.6276 4.29525C16.1272 4.30479 16.5804 4.57081 16.804 4.98462L17.0872 5.50904C17.3468 5.9896 17.2448 6.56932 16.8349 6.94881L16.225 7.51327C15.7069 7.99288 15.6976 8.76806 16.2044 9.25815L16.8019 9.83596C17.148 10.1706 17.2654 10.6541 17.1068 11.0936L16.907 11.6495C16.7236 12.1587 16.2086 12.5029 15.6286 12.5029H14.7665C14.033 12.5029 13.4346 13.0444 13.4191 13.7233L13.4006 14.5224C13.3903 14.9848 13.1029 15.4043 12.6558 15.6112L12.0893 15.8734C11.5701 16.1137 10.9439 16.0193 10.5339 15.6398L9.92405 15.0754C9.40594 14.5958 8.56849 14.5872 8.03903 15.0563L7.41478 15.6093C7.05324 15.9297 6.53101 16.0384 6.05614 15.8916L5.4556 15.7066C4.90554 15.5369 4.53366 15.0601 4.53366 14.5233V13.7252C4.53366 13.0464 3.94858 12.4924 3.21516 12.4781L2.35198 12.4609C1.85237 12.4514 1.39914 12.1854 1.17563 11.7715L0.892366 11.2471C0.632772 10.7666 0.734749 10.1868 1.14473 9.80736L1.75452 9.2429C2.27267 8.76329 2.28194 7.98811 1.77514 7.49801L1.17767 6.9202C0.830533 6.58457 0.713121 6.1002 0.871745 5.6616L1.07158 5.10572C1.25494 4.59656 1.76998 4.25235 2.3499 4.25235H3.21208C3.9455 4.25235 4.54397 3.71077 4.55944 3.03188L4.57795 2.23286C4.59034 1.77042 4.87668 1.35089 5.32373 1.14398L5.89029 0.881771C6.40945 0.641492 7.03573 0.735888 7.44571 1.11537L8.0555 1.67984C8.57362 2.15944 9.41109 2.16802 9.94056 1.69891L10.5648 1.14589C10.9263 0.826469 11.4496 0.717771 11.9234 0.864609Z" stroke="currentColor" stroke-width="1.5" stroke-linecap="round" stroke-linejoin="round"/>
</svg>
