<svg width="18" height="15" viewBox="0 0 18 15" fill="none" xmlns="http://www.w3.org/2000/svg">
<path d="M0.75 0.75H6.15589C6.79241 0.75 7.40288 1.02393 7.85296 1.51152L10.35 4.21667M3.15 8.55H0.75M5.95 3.35L7.55 5.08333C7.99184 5.56199 7.99184 6.33801 7.55 6.81667C7.10818 7.29533 6.39183 7.29533 5.95 6.81667L4.75 5.51667C4.06145 6.26261 2.97137 6.3465 2.19235 5.71357L1.95 5.51667M3.15 6.38333V10.2833C3.15 11.9175 3.15 12.7346 3.61863 13.2423C4.08726 13.75 4.8415 13.75 6.35 13.75H13.55C15.0585 13.75 15.8127 13.75 16.2814 13.2423C16.75 12.7346 16.75 11.9175 16.75 10.2833V7.68333C16.75 6.04915 16.75 5.23203 16.2814 4.72435C15.8127 4.21667 15.0585 4.21667 13.55 4.21667H6.75M11.35 8.98333C11.35 9.82097 10.7232 10.5 9.95 10.5C9.1768 10.5 8.55 9.82097 8.55 8.98333C8.55 8.1457 9.1768 7.46667 9.95 7.46667C10.7232 7.46667 11.35 8.1457 11.35 8.98333Z" stroke="#141B34" stroke-width="1.5" stroke-linecap="round" stroke-linejoin="round"/>
</svg>
