<svg width="18" height="16" viewBox="0 0 18 16" fill="none" xmlns="http://www.w3.org/2000/svg">
<path d="M9.95 10.0833H3.95M3.95 10.0833C2.4415 10.0833 1.68726 10.0833 1.21863 9.62771C0.75 9.17209 0.75 8.4388 0.75 6.97222V3.86111C0.75 2.39452 0.75 1.66122 1.21863 1.20561C1.68726 0.75 2.4415 0.75 3.95 0.75H13.55C15.0585 0.75 15.8127 0.75 16.2814 1.20561C16.75 1.66122 16.75 2.39452 16.75 3.86111V7.75C16.75 8.47481 16.75 8.83718 16.6282 9.12309C16.4658 9.5042 16.1543 9.80707 15.7623 9.96496C15.4682 10.0833 15.0955 10.0833 14.35 10.0833M3.95 10.0833C3.95 11.533 3.95 12.2577 4.19358 12.8294C4.51837 13.5917 5.14132 14.1974 5.92542 14.5132C6.51348 14.75 7.25896 14.75 8.75 14.75H9.15C11.0177 14.75 11.9515 14.75 12.6585 14.3827C13.2166 14.0926 13.6738 13.6481 13.9722 13.1055C14.35 12.4181 14.35 11.5102 14.35 9.69444V5.41667C13.0245 5.41667 11.95 6.4613 11.95 7.75V9.30556C10.6245 9.30556 9.55 10.3502 9.55 11.6389M10.35 5.41667C10.35 6.27572 9.63368 6.97222 8.75 6.97222C7.86632 6.97222 7.15 6.27572 7.15 5.41667C7.15 4.55756 7.86632 3.86111 8.75 3.86111C9.63368 3.86111 10.35 4.55756 10.35 5.41667Z" stroke="#141B34" stroke-width="1.5" stroke-linecap="round" stroke-linejoin="round"/>
</svg>
