<svg width="18" height="20" viewBox="0 0 18 20" fill="none" xmlns="http://www.w3.org/2000/svg">
<path d="M8.75 12.75C6.54086 12.75 4.75 10.9591 4.75 8.75C4.75 6.54086 6.54086 4.75 8.75 4.75C10.9591 4.75 12.75 6.54086 12.75 8.75C12.75 10.9591 10.9591 12.75 8.75 12.75ZM8.75 12.75C12.0637 12.75 14.75 15.4363 14.75 18.75M8.75 12.75C5.43629 12.75 2.75 15.4363 2.75 18.75M1.82026 12.75C1.13958 11.5733 0.75 10.2071 0.75 8.75C0.75 4.33172 4.33172 0.75 8.75 0.75C13.1683 0.75 16.75 4.33172 16.75 8.75C16.75 10.2071 16.3604 11.5733 15.6797 12.75" stroke="white" stroke-width="1.5" stroke-linecap="round" stroke-linejoin="round"/>
</svg>
