<svg width="20" height="21" viewBox="0 0 20 21" fill="none" xmlns="http://www.w3.org/2000/svg">
<path d="M12.75 6.74833V2.3603C12.75 1.47096 12.029 0.75 11.1397 0.75C10.8836 0.75 10.6312 0.81108 10.4034 0.92818L1.5123 5.49927C1.04424 5.73991 0.75 6.22203 0.75 6.74833M15.25 13.75C15.5261 13.75 15.75 13.5261 15.75 13.25C15.75 12.9739 15.5261 12.75 15.25 12.75M15.25 13.75C14.9739 13.75 14.75 13.5261 14.75 13.25C14.75 12.9739 14.9739 12.75 15.25 12.75M15.25 13.75V12.75M0.75 6.75H12.75C15.5784 6.75 16.9926 6.75 17.8713 7.62868C18.75 8.5074 18.75 9.9216 18.75 12.75V13.75C18.75 16.5784 18.75 17.9926 17.8713 18.8713C16.9926 19.75 15.5784 19.75 12.75 19.75H6.75C3.92157 19.75 2.50736 19.75 1.62868 18.8713C0.75 17.9926 0.75 16.5784 0.75 13.75V6.75Z" stroke="currentColor" stroke-width="1.5" stroke-linecap="round" stroke-linejoin="round"/>
</svg>
